<svg height="256px" width="256px" version="1.1" id="Layer_1" xmlns="http://www.w3.org/2000/svg" xmlns:xlink="http://www.w3.org/1999/xlink" viewBox="0 0 512.00 512.00" xml:space="preserve" fill="#000000" stroke="#000000" stroke-width="0.00512" transform="matrix(1, 0, 0, 1, 0, 0)">
    <g>
      <circle style="fill:#FDC00F;" cx="256" cy="256" r="256"></circle>
      <path style="fill:#EB9900;" d="M370.514,112.553c-0.466-0.502-0.896-1.034-1.382-1.521l0,0c-1.147-1.147-2.36-2.237-3.615-3.267 c-0.579-0.476-1.193-0.891-1.787-1.336c-0.691-0.517-1.372-1.055-2.094-1.536c-0.707-0.471-1.439-0.881-2.161-1.311 c-0.66-0.394-1.306-0.809-1.981-1.172c-0.742-0.394-1.5-0.732-2.258-1.085c-0.701-0.333-1.393-0.681-2.115-0.983 c-0.742-0.307-1.495-0.553-2.248-0.824c-0.768-0.276-1.526-0.573-2.314-0.809c-0.748-0.225-1.505-0.394-2.263-0.584 c-0.809-0.205-1.603-0.43-2.427-0.594c-0.87-0.174-1.751-0.276-2.632-0.399c-0.717-0.102-1.418-0.241-2.14-0.307 c-1.623-0.159-3.246-0.246-4.874-0.246l0,0c-6.815,0-13.312,1.382-19.22,3.881c-4.429,1.874-8.53,4.378-12.186,7.393 c-1.219,1.004-2.391,2.068-3.507,3.185c-1.152,1.152-2.237,2.36-3.272,3.62c-0.471,0.568-0.876,1.172-1.316,1.761l-0.804,1.091 c-0.333-0.353-23.05-23.148-23.532-23.629l0,0l0,0l-0.005-0.005c-1.147-1.147-2.355-2.232-3.61-3.261 c-0.579-0.476-1.193-0.891-1.787-1.336c-0.691-0.517-1.367-1.055-2.089-1.536c-0.712-0.476-1.454-0.891-2.181-1.326 c-0.65-0.389-1.29-0.799-1.961-1.157c-0.742-0.399-1.505-0.737-2.268-1.091c-0.701-0.333-1.393-0.681-2.109-0.978 c-0.737-0.307-1.49-0.553-2.237-0.819c-0.773-0.276-1.531-0.573-2.319-0.814c-0.748-0.225-1.505-0.389-2.258-0.579 c-0.809-0.205-1.608-0.43-2.432-0.594c-0.87-0.174-1.751-0.276-2.632-0.399c-0.717-0.102-1.418-0.241-2.14-0.307 c-1.623-0.159-3.246-0.246-4.874-0.246l0,0l0,0l0,0c-13.635,0-25.979,5.524-34.913,14.459l0,0c-1.152,1.152-2.237,2.36-3.272,3.62 c-0.471,0.573-0.886,1.183-1.326,1.772c-0.522,0.696-1.065,1.382-1.546,2.104c-0.471,0.707-0.881,1.439-1.311,2.161 c-0.394,0.66-0.809,1.306-1.172,1.981c-0.394,0.737-0.727,1.495-1.08,2.243c-0.333,0.712-0.691,1.408-0.988,2.135 c-0.302,0.732-0.548,1.475-0.809,2.217c-0.282,0.778-0.579,1.546-0.819,2.345c-0.22,0.737-0.384,1.485-0.573,2.227 c-0.205,0.819-0.435,1.623-0.599,2.458c-0.169,0.86-0.271,1.725-0.394,2.586c-0.102,0.727-0.241,1.444-0.317,2.186 c-0.159,1.618-0.246,3.246-0.246,4.869v0.005v145.946c0,13.635,5.524,25.979,14.459,34.913l0,0l0,0l0,0l0.067,0.061l1.372,1.239 c0.466,0.502,33.208,33.26,33.572,33.597c0.097,2.493,0.348,4.951,0.809,7.337l-0.43-0.389 c-0.461-0.502-31.908-32.046-32.394-32.532c-1.152-1.147-2.36-2.237-3.62-3.272c-0.579-0.476-1.183-0.886-1.777-1.326 c-0.696-0.522-1.377-1.06-2.099-1.546c-0.707-0.471-1.439-0.881-2.161-1.311c-0.66-0.394-1.306-0.809-1.981-1.172 c-0.737-0.394-1.5-0.732-2.253-1.085c-0.707-0.333-1.398-0.686-2.125-0.983c-0.737-0.307-1.49-0.553-2.237-0.819 c-0.773-0.276-1.531-0.573-2.319-0.814c-0.748-0.225-1.505-0.389-2.258-0.579c-0.809-0.205-1.608-0.43-2.432-0.594 c-0.87-0.174-1.751-0.276-2.632-0.399c-0.717-0.102-1.418-0.241-2.14-0.307c-1.623-0.159-3.246-0.246-4.874-0.246l0,0l0,0 c-11.93,0-22.871,4.229-31.406,11.274c-1.219,1.004-2.391,2.068-3.507,3.185c-1.152,1.152-2.237,2.36-3.272,3.62 c-0.476,0.579-0.886,1.183-1.326,1.777c-0.522,0.696-1.06,1.377-1.546,2.099c-0.471,0.707-0.881,1.439-1.311,2.161 c-0.394,0.66-0.809,1.306-1.172,1.981c-0.394,0.737-0.727,1.495-1.08,2.243c-0.333,0.712-0.691,1.408-0.988,2.135 c-0.302,0.732-0.548,1.48-0.814,2.227c-0.276,0.778-0.579,1.541-0.814,2.335c-0.225,0.748-0.389,1.505-0.579,2.258 c-0.205,0.809-0.43,1.608-0.594,2.432c-0.174,0.87-0.276,1.751-0.399,2.632c-0.102,0.717-0.241,1.418-0.307,2.14 c-0.159,1.623-0.246,3.246-0.246,4.874l0,0v18.243c0,13.635,5.524,25.979,14.459,34.913l0,0l0,0l0,0l0.067,0.061 c0.435,0.435,103.741,103.741,104.207,104.212c71.378,4.997,144.445-19.712,199.009-74.276 c50.509-50.509,75.459-116.874,74.931-183.076l-0.466-0.42C511.022,253.02,370.99,112.993,370.514,112.553z"></path>
      <path style="fill:#A4B830;" d="M380.068,255.406c-7.26-18.227-25.032-31.13-45.85-31.13s-38.589,12.902-45.85,31.13h-3.523v18.243 l0,0c0,13.635,5.524,25.979,14.459,34.913l0,0c8.934,8.934,21.279,14.459,34.913,14.459c27.269,0,49.372-22.103,49.372-49.372 v-18.243L380.068,255.406L380.068,255.406z"></path>
      <path style="fill:#D7ECED;" d="M317.553,290.319H299.31v18.243l0,0l0,0c9.641,9.641,22.277,14.459,34.913,14.459v-49.372 L317.553,290.319z"></path>
      <path style="fill:#D7ECED;" d="M383.595,273.649v-18.243h-3.523c-2.499-6.267-6.257-11.884-10.936-16.584v34.826h-34.913 l34.913,34.913C378.772,298.921,383.595,286.285,383.595,273.649L383.595,273.649z"></path>
      <path style="fill:#A4B830;" d="M369.132,290.319h-18.243l-16.671-16.671v49.372c13.635,0,25.979-5.524,34.913-14.459l0,0l0,0 V290.319z"></path>
      <circle style="fill:#2D5872;" cx="334.234" cy="255.406" r="49.372"></circle>
      <path style="fill:#FFFFFF;" d="M334.223,206.034v49.372l34.913-34.913C359.491,210.852,346.854,206.034,334.223,206.034z"></path>
      <path style="fill:#C2D64A;" d="M299.31,220.493l34.913,34.913v-49.372C320.589,206.034,308.244,211.558,299.31,220.493z"></path>
      <path style="fill:#FFFFFF;" d="M284.846,255.406h49.372l-34.913-34.913C289.669,230.134,284.846,242.77,284.846,255.406z"></path>
      <path style="fill:#C2D64A;" d="M299.31,290.319l34.913-34.913h-49.372C284.846,269.041,290.376,281.385,299.31,290.319z"></path>
      <path style="fill:#FFFFFF;" d="M334.223,304.778v-49.372l-34.913,34.913C308.951,299.96,321.587,304.778,334.223,304.778z"></path>
      <path style="fill:#C2D64A;" d="M369.132,290.319l-34.913-34.913v49.372C347.853,304.778,360.197,299.254,369.132,290.319z"></path>
      <path style="fill:#FFFFFF;" d="M383.595,255.406h-49.372l34.913,34.913C378.772,280.678,383.595,268.042,383.595,255.406z"></path>
      <path style="fill:#C2D64A;" d="M369.132,220.493l-34.913,34.913h49.372C383.595,241.772,378.066,229.427,369.132,220.493z"></path>
      <circle style="fill:#C2D64A;" cx="334.234" cy="255.406" r="34.913"></circle>
      <circle style="fill:#FFFFFF;" cx="334.234" cy="255.406" r="24.689"></circle>
      <path style="fill:#A4B830;" d="M380.068,237.164c-7.26-18.227-25.032-31.13-45.85-31.13s-38.589,12.902-45.85,31.13h-3.523v18.243 l0,0c0,13.635,5.524,25.979,14.459,34.913l0,0c8.934,8.934,21.279,14.459,34.913,14.459c27.269,0,49.372-22.103,49.372-49.372 v-18.243L380.068,237.164L380.068,237.164z"></path>
      <path style="fill:#D7ECED;" d="M317.553,272.077H299.31v18.243l0,0l0,0c9.641,9.641,22.277,14.459,34.913,14.459v-49.372 L317.553,272.077z"></path>
      <path style="fill:#D7ECED;" d="M383.595,255.406v-18.243h-3.523c-2.499-6.267-6.257-11.884-10.936-16.584v34.826h-34.913 l34.913,34.913C378.772,280.678,383.595,268.042,383.595,255.406L383.595,255.406z"></path>
      <path style="fill:#A4B830;" d="M369.132,272.077h-18.243l-16.671-16.671v49.372c13.635,0,25.979-5.524,34.913-14.459l0,0l0,0 V272.077z"></path>
      <circle style="fill:#2D5872;" cx="334.234" cy="237.158" r="49.372"></circle>
      <path style="fill:#FFFFFF;" d="M334.223,187.791v49.372l34.913-34.913C359.491,192.609,346.854,187.791,334.223,187.791z"></path>
      <path style="fill:#C2D64A;" d="M299.31,202.25l34.913,34.913v-49.372C320.589,187.791,308.244,193.316,299.31,202.25z"></path>
      <path style="fill:#FFFFFF;" d="M284.846,237.164h49.372l-34.913-34.913C289.669,211.891,284.846,224.527,284.846,237.164z"></path>
      <path style="fill:#C2D64A;" d="M299.31,272.077l34.913-34.913h-49.372C284.846,250.798,290.376,263.142,299.31,272.077z"></path>
      <path style="fill:#FFFFFF;" d="M334.223,286.536v-49.372l-34.913,34.913C308.951,281.718,321.587,286.536,334.223,286.536z"></path>
      <path style="fill:#C2D64A;" d="M369.132,272.077l-34.913-34.913v49.372C347.853,286.536,360.197,281.011,369.132,272.077z"></path>
      <path style="fill:#FFFFFF;" d="M383.595,237.164h-49.372l34.913,34.913C378.772,262.436,383.595,249.8,383.595,237.164z"></path>
      <path style="fill:#C2D64A;" d="M369.132,202.25l-34.913,34.913h49.372C383.595,223.529,378.066,211.185,369.132,202.25z"></path>
      <circle style="fill:#C2D64A;" cx="334.234" cy="237.158" r="34.913"></circle>
      <circle style="fill:#FFFFFF;" cx="334.234" cy="237.158" r="24.689"></circle>
      <path style="fill:#A4B830;" d="M380.068,218.921c-7.26-18.227-25.032-31.13-45.85-31.13s-38.589,12.902-45.85,31.13h-3.523v18.243 l0,0c0,13.635,5.524,25.979,14.459,34.913l0,0c8.934,8.934,21.279,14.459,34.913,14.459c27.269,0,49.372-22.103,49.372-49.372 v-18.243L380.068,218.921L380.068,218.921z"></path>
      <path style="fill:#D7ECED;" d="M317.553,253.834H299.31v18.243l0,0l0,0c9.641,9.641,22.277,14.459,34.913,14.459v-49.372 L317.553,253.834z"></path>
      <path style="fill:#D7ECED;" d="M383.595,237.164v-18.243h-3.523c-2.499-6.267-6.257-11.884-10.936-16.584v34.826h-34.913 l34.913,34.913C378.772,262.436,383.595,249.8,383.595,237.164L383.595,237.164z"></path>
      <path style="fill:#A4B830;" d="M369.132,253.829h-18.243l-16.671-16.671v49.372c13.635,0,25.979-5.524,34.913-14.459l0,0l0,0 V253.829z"></path>
      <circle style="fill:#2D5872;" cx="334.234" cy="218.921" r="49.372"></circle>
      <path style="fill:#FFFFFF;" d="M334.223,169.549v49.372l34.913-34.913C359.491,174.367,346.854,169.549,334.223,169.549z"></path>
      <path style="fill:#C2D64A;" d="M299.31,184.008l34.913,34.913v-49.372C320.589,169.549,308.244,175.073,299.31,184.008z"></path>
      <path style="fill:#FFFFFF;" d="M284.846,218.921h49.372l-34.913-34.913C289.669,193.649,284.846,206.285,284.846,218.921z"></path>
      <path style="fill:#C2D64A;" d="M299.31,253.834l34.913-34.913h-49.372C284.846,232.556,290.376,244.895,299.31,253.834z"></path>
      <path style="fill:#FFFFFF;" d="M334.223,268.293v-49.372l-34.913,34.913C308.951,263.47,321.587,268.293,334.223,268.293z"></path>
      <path style="fill:#C2D64A;" d="M369.132,253.834l-34.913-34.913v49.372C347.853,268.293,360.197,262.769,369.132,253.834z"></path>
      <path style="fill:#FFFFFF;" d="M383.595,218.921h-49.372l34.913,34.913C378.772,244.193,383.595,231.557,383.595,218.921z"></path>
      <path style="fill:#C2D64A;" d="M369.132,184.008l-34.913,34.913h49.372C383.595,205.286,378.066,192.942,369.132,184.008z"></path>
      <circle style="fill:#C2D64A;" cx="334.234" cy="218.921" r="34.913"></circle>
      <circle style="fill:#FFFFFF;" cx="334.234" cy="218.921" r="24.689"></circle>
      <path style="fill:#A4B830;" d="M380.068,200.678c-7.26-18.227-25.032-31.13-45.85-31.13s-38.589,12.902-45.85,31.13h-3.523v18.243 l0,0c0,13.635,5.524,25.979,14.459,34.913l0,0c8.934,8.934,21.279,14.459,34.913,14.459c27.269,0,49.372-22.103,49.372-49.372 v-18.243L380.068,200.678L380.068,200.678z"></path>
      <path style="fill:#D7ECED;" d="M317.553,235.587H299.31v18.243l0,0l0,0c9.641,9.641,22.277,14.459,34.913,14.459v-49.372 L317.553,235.587z"></path>
      <path style="fill:#D7ECED;" d="M383.595,218.921v-18.243h-3.523c-2.499-6.267-6.257-11.884-10.936-16.584v34.826h-34.913 l34.913,34.913C378.772,244.188,383.595,231.557,383.595,218.921L383.595,218.921z"></path>
      <path style="fill:#A4B830;" d="M369.132,235.587h-18.243l-16.671-16.671v49.372c13.635,0,25.979-5.524,34.913-14.459l0,0l0,0 V235.587z"></path>
      <circle style="fill:#2D5872;" cx="334.234" cy="200.704" r="49.372"></circle>
      <path style="fill:#FFFFFF;" d="M334.223,151.301v49.372l34.913-34.913C359.491,156.124,346.854,151.301,334.223,151.301z"></path>
      <path style="fill:#C2D64A;" d="M299.31,165.765l34.913,34.913v-49.372C320.589,151.301,308.244,156.831,299.31,165.765z"></path>
      <path style="fill:#FFFFFF;" d="M284.846,200.678h49.372l-34.913-34.913C289.669,175.406,284.846,188.042,284.846,200.678z"></path>
      <path style="fill:#C2D64A;" d="M299.31,235.587l34.913-34.913h-49.372C284.846,214.313,290.376,226.652,299.31,235.587z"></path>
      <path style="fill:#FFFFFF;" d="M334.223,250.051v-49.372l-34.913,34.913C308.951,245.228,321.587,250.051,334.223,250.051z"></path>
      <path style="fill:#C2D64A;" d="M369.132,235.587l-34.913-34.913v49.372C347.853,250.051,360.197,244.521,369.132,235.587z"></path>
      <path style="fill:#FFFFFF;" d="M383.595,200.678h-49.372l34.913,34.913C378.772,225.946,383.595,213.309,383.595,200.678z"></path>
      <path style="fill:#C2D64A;" d="M369.132,165.765l-34.913,34.913h49.372C383.595,187.044,378.066,174.7,369.132,165.765z"></path>
      <circle style="fill:#C2D64A;" cx="334.234" cy="200.704" r="34.913"></circle>
      <circle style="fill:#FFFFFF;" cx="334.234" cy="200.704" r="24.689"></circle>
      <path style="fill:#A4B830;" d="M380.068,182.431c-7.26-18.227-25.032-31.13-45.85-31.13s-38.589,12.902-45.85,31.13h-3.523v18.243 l0,0c0,13.635,5.524,25.979,14.459,34.913l0,0c8.934,8.934,21.279,14.459,34.913,14.459c27.269,0,49.372-22.103,49.372-49.372 v-18.243H380.068z"></path>
      <path style="fill:#D7ECED;" d="M317.553,217.344H299.31v18.243l0,0l0,0c9.641,9.641,22.277,14.459,34.913,14.459v-49.372 L317.553,217.344z"></path>
      <path style="fill:#D7ECED;" d="M383.595,200.678v-18.243h-3.523c-2.499-6.267-6.257-11.884-10.936-16.584v34.826h-34.913 l34.913,34.913C378.772,225.946,383.595,213.309,383.595,200.678L383.595,200.678z"></path>
      <path style="fill:#A4B830;" d="M369.132,217.344h-18.243l-16.671-16.671v49.372c13.635,0,25.979-5.524,34.913-14.459l0,0l0,0 V217.344z"></path>
      <circle style="fill:#2D5872;" cx="334.234" cy="182.431" r="49.372"></circle>
      <path style="fill:#FFFFFF;" d="M334.223,133.059v49.372l34.913-34.913C359.491,137.882,346.854,133.059,334.223,133.059z"></path>
      <path style="fill:#C2D64A;" d="M299.31,147.523l34.913,34.913v-49.372C320.589,133.059,308.244,138.588,299.31,147.523z"></path>
      <path style="fill:#FFFFFF;" d="M284.846,182.431h49.372l-34.913-34.913C289.669,157.164,284.846,169.8,284.846,182.431z"></path>
      <path style="fill:#C2D64A;" d="M299.31,217.344l34.913-34.913h-49.372C284.846,196.065,290.376,208.41,299.31,217.344z"></path>
      <path style="fill:#FFFFFF;" d="M334.223,231.808v-49.372l-34.913,34.913C308.951,226.985,321.587,231.808,334.223,231.808z"></path>
      <path style="fill:#C2D64A;" d="M369.132,217.344l-34.913-34.913v49.372C347.853,231.808,360.197,226.278,369.132,217.344z"></path>
      <path style="fill:#FFFFFF;" d="M383.595,182.431h-49.372l34.913,34.913C378.772,207.703,383.595,195.067,383.595,182.431z"></path>
      <path style="fill:#C2D64A;" d="M369.132,147.523l-34.913,34.913h49.372C383.595,168.801,378.066,156.457,369.132,147.523z"></path>
      <circle style="fill:#C2D64A;" cx="334.234" cy="182.431" r="34.913"></circle>
      <circle style="fill:#FFFFFF;" cx="334.234" cy="182.431" r="24.689"></circle>
      <path style="fill:#A4B830;" d="M380.068,164.188c-7.26-18.227-25.032-31.13-45.85-31.13s-38.589,12.902-45.85,31.13h-3.523v18.243 l0,0c0,13.635,5.524,25.979,14.459,34.913l0,0c8.934,8.934,21.279,14.459,34.913,14.459c27.269,0,49.372-22.103,49.372-49.372 v-18.243L380.068,164.188L380.068,164.188z"></path>
      <path style="fill:#D7ECED;" d="M317.553,199.101H299.31v18.243l0,0l0,0c9.641,9.641,22.277,14.459,34.913,14.459v-49.372 L317.553,199.101z"></path>
      <path style="fill:#D7ECED;" d="M383.595,182.431v-18.243h-3.523c-2.499-6.267-6.257-11.884-10.936-16.584v34.826h-34.913 l34.913,34.913C378.772,207.703,383.595,195.067,383.595,182.431L383.595,182.431z"></path>
      <path style="fill:#A4B830;" d="M369.132,199.101h-18.243l-16.671-16.671v49.372c13.635,0,25.979-5.524,34.913-14.459l0,0l0,0 V199.101z"></path>
      <circle style="fill:#2D5872;" cx="334.234" cy="164.198" r="49.372"></circle>
      <path style="fill:#FFFFFF;" d="M334.223,114.816v49.372l34.913-34.913C359.491,119.639,346.854,114.816,334.223,114.816z"></path>
      <path style="fill:#C2D64A;" d="M299.31,129.28l34.913,34.913v-49.372C320.589,114.816,308.244,120.34,299.31,129.28z"></path>
      <path style="fill:#FFFFFF;" d="M284.846,164.188h49.372l-34.913-34.913C289.669,138.921,284.846,151.552,284.846,164.188z"></path>
      <path style="fill:#C2D64A;" d="M299.31,199.101l34.913-34.913h-49.372C284.846,177.823,290.376,190.167,299.31,199.101z"></path>
      <path style="fill:#FFFFFF;" d="M334.223,213.56v-49.372l-34.913,34.913C308.951,208.742,321.587,213.56,334.223,213.56z"></path>
      <path style="fill:#C2D64A;" d="M369.132,199.101l-34.913-34.913v49.372C347.853,213.56,360.197,208.036,369.132,199.101z"></path>
      <path style="fill:#FFFFFF;" d="M383.595,164.188h-49.372l34.913,34.913C378.772,189.46,383.595,176.824,383.595,164.188z"></path>
      <path style="fill:#C2D64A;" d="M369.132,129.28l-34.913,34.913h49.372C383.595,150.554,378.066,138.214,369.132,129.28z"></path>
      <circle style="fill:#C2D64A;" cx="334.234" cy="164.198" r="34.913"></circle>
      <circle style="fill:#FFFFFF;" cx="334.234" cy="164.198" r="24.689"></circle>
      <path style="fill:#A4B830;" d="M380.068,145.946c-7.26-18.227-25.032-31.13-45.85-31.13s-38.589,12.902-45.85,31.13h-3.523v18.243 l0,0c0,13.635,5.524,25.979,14.459,34.913l0,0c8.934,8.934,21.279,14.459,34.913,14.459c27.269,0,49.372-22.103,49.372-49.372 v-18.243C383.59,145.946,380.068,145.946,380.068,145.946z"></path>
      <path style="fill:#D7ECED;" d="M317.553,180.859H299.31v18.243l0,0l0,0c9.641,9.641,22.277,14.459,34.913,14.459v-49.372 L317.553,180.859z"></path>
      <path style="fill:#D7ECED;" d="M383.595,164.188v-18.243h-3.523c-2.499-6.267-6.257-11.884-10.936-16.584v34.826h-34.913 l34.913,34.913C378.772,189.46,383.595,176.824,383.595,164.188L383.595,164.188z"></path>
      <path style="fill:#A4B830;" d="M369.132,180.859h-18.243l-16.671-16.671v49.372c13.635,0,25.979-5.524,34.913-14.459l0,0l0,0 V180.859z"></path>
      <circle style="fill:#2D5872;" cx="334.234" cy="145.946" r="49.372"></circle>
      <path style="fill:#FFFFFF;" d="M334.223,96.573v49.372l34.913-34.913C359.491,101.391,346.854,96.573,334.223,96.573z"></path>
      <path style="fill:#C2D64A;" d="M299.31,111.032l34.913,34.913V96.573C320.589,96.573,308.244,102.098,299.31,111.032z"></path>
      <path style="fill:#FFFFFF;" d="M284.846,145.946h49.372l-34.913-34.913C289.669,120.673,284.846,133.309,284.846,145.946z"></path>
      <path style="fill:#C2D64A;" d="M299.31,180.859l34.913-34.913h-49.372C284.846,159.58,290.376,171.924,299.31,180.859z"></path>
      <path style="fill:#FFFFFF;" d="M334.223,195.318v-49.372l-34.913,34.913C308.951,190.5,321.587,195.318,334.223,195.318z"></path>
      <path style="fill:#C2D64A;" d="M369.132,180.859l-34.913-34.913v49.372C347.853,195.318,360.197,189.793,369.132,180.859z"></path>
      <path style="fill:#FFFFFF;" d="M383.595,145.946h-49.372l34.913,34.913C378.772,171.218,383.595,158.582,383.595,145.946z"></path>
      <path style="fill:#C2D64A;" d="M369.132,111.032l-34.913,34.913h49.372C383.595,132.311,378.066,119.967,369.132,111.032z"></path>
      <circle style="fill:#C2D64A;" cx="334.234" cy="145.946" r="34.913"></circle>
      <circle style="fill:#FFFFFF;" cx="334.234" cy="145.946" r="24.689"></circle>
      <path style="fill:#ff0000;" d="M281.324,256.492c-7.26-18.227-25.032-31.13-45.85-31.13s-38.589,12.902-45.85,31.13h-3.523v18.243 l0,0c0,13.635,5.524,25.979,14.459,34.913l0,0c8.934,8.934,21.279,14.459,34.913,14.459c27.269,0,49.372-22.103,49.372-49.372 v-18.243L281.324,256.492L281.324,256.492z"></path>
      <path style="fill:#D7ECED;" d="M218.808,291.405h-18.243v18.243l0,0l0,0c9.641,9.641,22.277,14.459,34.913,14.459v-49.372 L218.808,291.405z"></path>
      <path style="fill:#D7ECED;" d="M284.846,274.734v-18.243h-3.523c-2.499-6.267-6.257-11.884-10.936-16.584v34.826h-34.913 l34.913,34.913C280.028,300.006,284.846,287.37,284.846,274.734L284.846,274.734z"></path>
      <path style="fill:#ff0000;" d="M270.387,291.405h-18.243l-16.671-16.671v49.372c13.635,0,25.979-5.524,34.913-14.459l0,0l0,0 V291.405z"></path>
      <circle style="fill:#2D5872;" cx="235.474" cy="256.512" r="49.372"></circle>
      <path style="fill:#FFFFFF;" d="M235.474,207.119v49.372l34.913-34.913C260.746,211.942,248.11,207.119,235.474,207.119z"></path>
      <path style="fill:#FC611F;" d="M200.566,221.578l34.913,34.913v-49.372C221.839,207.119,209.5,212.644,200.566,221.578z"></path>
      <path style="fill:#FFFFFF;" d="M186.102,256.492h49.372l-34.913-34.913C190.925,231.219,186.102,243.855,186.102,256.492z"></path>
      <path style="fill:#FC611F;" d="M200.566,291.405l34.913-34.913h-49.372C186.102,270.126,191.626,282.47,200.566,291.405z"></path>
      <path style="fill:#FFFFFF;" d="M235.474,305.864v-49.372l-34.913,34.913C210.202,301.046,222.838,305.864,235.474,305.864z"></path>
      <path style="fill:#FC611F;" d="M270.387,291.405l-34.913-34.913v49.372C249.108,305.864,261.453,300.339,270.387,291.405z"></path>
      <path style="fill:#FFFFFF;" d="M284.846,256.492h-49.372l34.913,34.913C280.028,281.764,284.846,269.128,284.846,256.492z"></path>
      <path style="fill:#FC611F;" d="M270.387,221.578l-34.913,34.913h49.372C284.846,242.857,279.322,230.513,270.387,221.578z"></path>
      <circle style="fill:#FC611F;" cx="235.474" cy="256.512" r="34.913"></circle>
      <circle style="fill:#FFFFFF;" cx="235.474" cy="256.512" r="24.689"></circle>
      <path style="fill:#ff0000;" d="M281.324,238.249c-7.26-18.227-25.032-31.13-45.85-31.13s-38.589,12.902-45.85,31.13h-3.523v18.243 l0,0c0,13.635,5.524,25.979,14.459,34.913l0,0c8.934,8.934,21.279,14.459,34.913,14.459c27.269,0,49.372-22.103,49.372-49.372 v-18.243L281.324,238.249L281.324,238.249z"></path>
      <path style="fill:#D7ECED;" d="M218.808,273.162h-18.243v18.243l0,0l0,0c9.641,9.641,22.277,14.459,34.913,14.459v-49.372 L218.808,273.162z"></path>
      <path style="fill:#D7ECED;" d="M284.846,256.492v-18.243h-3.523c-2.499-6.267-6.257-11.884-10.936-16.584v34.826h-34.913 l34.913,34.913C280.028,281.764,284.846,269.128,284.846,256.492L284.846,256.492z"></path>
      <path style="fill:#ff0000;" d="M270.387,273.162h-18.243l-16.671-16.671v49.372c13.635,0,25.979-5.524,34.913-14.459l0,0l0,0 V273.162z"></path>
      <circle style="fill:#2D5872;" cx="235.474" cy="238.249" r="49.372"></circle>
      <path style="fill:#FFFFFF;" d="M235.474,188.877v49.372l34.913-34.913C260.746,193.695,248.11,188.877,235.474,188.877z"></path>
      <path style="fill:#FC611F;" d="M200.566,203.336l34.913,34.913v-49.372C221.839,188.877,209.5,194.401,200.566,203.336z"></path>
      <path style="fill:#FFFFFF;" d="M186.102,238.249h49.372l-34.913-34.913C190.925,212.977,186.102,225.613,186.102,238.249z"></path>
      <path style="fill:#FC611F;" d="M200.566,273.162l34.913-34.913h-49.372C186.102,251.884,191.626,264.228,200.566,273.162z"></path>
      <path style="fill:#FFFFFF;" d="M235.474,287.621v-49.372l-34.913,34.913C210.202,282.803,222.838,287.621,235.474,287.621z"></path>
      <path style="fill:#FC611F;" d="M270.387,273.162l-34.913-34.913v49.372C249.108,287.621,261.453,282.097,270.387,273.162z"></path>
      <path style="fill:#FFFFFF;" d="M284.846,238.249h-49.372l34.913,34.913C280.028,263.521,284.846,250.885,284.846,238.249z"></path>
      <path style="fill:#FC611F;" d="M270.387,203.336l-34.913,34.913h49.372C284.846,224.614,279.322,212.27,270.387,203.336z"></path>
      <circle style="fill:#FC611F;" cx="235.474" cy="238.249" r="34.913"></circle>
      <circle style="fill:#FFFFFF;" cx="235.474" cy="238.249" r="24.689"></circle>
      <path style="fill:#ff0000;" d="M281.324,220.006c-7.26-18.227-25.032-31.13-45.85-31.13s-38.589,12.902-45.85,31.13h-3.523v18.243 l0,0c0,13.635,5.524,25.979,14.459,34.913l0,0c8.934,8.934,21.279,14.459,34.913,14.459c27.269,0,49.372-22.103,49.372-49.372 v-18.243H281.324z"></path>
      <path style="fill:#D7ECED;" d="M218.808,254.915h-18.243v18.243l0,0l0,0c9.641,9.641,22.277,14.459,34.913,14.459v-49.372 L218.808,254.915z"></path>
      <path style="fill:#D7ECED;" d="M284.846,238.249v-18.243h-3.523c-2.499-6.267-6.257-11.884-10.936-16.584v34.826h-34.913 l34.913,34.913C280.028,263.521,284.846,250.885,284.846,238.249L284.846,238.249z"></path>
      <path style="fill:#ff0000;" d="M270.387,254.915h-18.243l-16.671-16.671v49.372c13.635,0,25.979-5.524,34.913-14.459l0,0l0,0 V254.915z"></path>
      <circle style="fill:#2D5872;" cx="235.474" cy="220.006" r="49.372"></circle>
      <path style="fill:#FFFFFF;" d="M235.474,170.634v49.372l34.913-34.913C260.746,175.452,248.11,170.634,235.474,170.634z"></path>
      <path style="fill:#FC611F;" d="M200.566,185.093l34.913,34.913v-49.372C221.839,170.634,209.5,176.159,200.566,185.093z"></path>
      <path style="fill:#FFFFFF;" d="M186.102,220.006h49.372l-34.913-34.913C190.925,194.734,186.102,207.37,186.102,220.006z"></path>
      <path style="fill:#FC611F;" d="M200.566,254.915l34.913-34.913h-49.372C186.102,233.641,191.626,245.98,200.566,254.915z"></path>
      <path style="fill:#FFFFFF;" d="M235.474,269.379v-49.372l-34.913,34.913C210.202,264.556,222.838,269.379,235.474,269.379z"></path>
      <path style="fill:#FC611F;" d="M270.387,254.915l-34.913-34.913v49.372C249.108,269.379,261.453,263.849,270.387,254.915z"></path>
      <path style="fill:#FFFFFF;" d="M284.846,220.006h-49.372l34.913,34.913C280.028,245.274,284.846,232.643,284.846,220.006z"></path>
      <path style="fill:#FC611F;" d="M270.387,185.093l-34.913,34.913h49.372C284.846,206.372,279.322,194.028,270.387,185.093z"></path>
      <circle style="fill:#FC611F;" cx="235.474" cy="220.006" r="34.913"></circle>
      <circle style="fill:#FFFFFF;" cx="235.474" cy="220.006" r="24.689"></circle>
      <path style="fill:#ff0000;" d="M281.324,201.759c-7.26-18.227-25.032-31.13-45.85-31.13s-38.589,12.902-45.85,31.13h-3.523v18.243 l0,0c0,13.635,5.524,25.979,14.459,34.913l0,0c8.934,8.934,21.279,14.459,34.913,14.459c27.269,0,49.372-22.103,49.372-49.372 v-18.243L281.324,201.759L281.324,201.759z"></path>
      <path style="fill:#D7ECED;" d="M218.808,236.672h-18.243v18.243l0,0l0,0c9.641,9.641,22.277,14.459,34.913,14.459v-49.367 L218.808,236.672z"></path>
      <path style="fill:#D7ECED;" d="M284.846,220.006v-18.243h-3.523c-2.499-6.267-6.257-11.884-10.936-16.584v34.826h-34.913 l34.913,34.913C280.028,245.274,284.846,232.637,284.846,220.006L284.846,220.006z"></path>
      <path style="fill:#ff0000;" d="M270.387,236.672h-18.243l-16.671-16.671v49.372c13.635,0,25.979-5.524,34.913-14.459l0,0l0,0 V236.672z"></path>
      <circle style="fill:#2D5872;" cx="235.474" cy="201.779" r="49.372"></circle>
      <path style="fill:#FFFFFF;" d="M235.474,152.387v49.372l34.913-34.913C260.746,157.21,248.11,152.387,235.474,152.387z"></path>
      <path style="fill:#FC611F;" d="M200.566,166.851l34.913,34.913v-49.372C221.839,152.387,209.5,157.916,200.566,166.851z"></path>
      <path style="fill:#FFFFFF;" d="M186.102,201.759h49.372l-34.913-34.913C190.925,176.492,186.102,189.128,186.102,201.759z"></path>
      <path style="fill:#FC611F;" d="M200.566,236.672l34.913-34.913h-49.372C186.102,215.393,191.626,227.738,200.566,236.672z"></path>
      <path style="fill:#FFFFFF;" d="M235.474,251.136v-49.372l-34.913,34.913C210.202,246.313,222.838,251.136,235.474,251.136z"></path>
      <path style="fill:#FC611F;" d="M270.387,236.672l-34.913-34.913v49.372C249.108,251.136,261.453,245.606,270.387,236.672z"></path>
      <path style="fill:#FFFFFF;" d="M284.846,201.759h-49.372l34.913,34.913C280.028,227.031,284.846,214.395,284.846,201.759z"></path>
      <path style="fill:#FC611F;" d="M270.387,166.851l-34.913,34.913h49.372C284.846,188.129,279.322,175.785,270.387,166.851z"></path>
      <circle style="fill:#FC611F;" cx="235.474" cy="201.779" r="34.913"></circle>
      <circle style="fill:#FFFFFF;" cx="235.474" cy="201.779" r="24.689"></circle>
      <path style="fill:#ff0000;" d="M281.324,183.516c-7.26-18.227-25.032-31.13-45.85-31.13s-38.589,12.902-45.85,31.13h-3.523v18.243 l0,0c0,13.635,5.524,25.979,14.459,34.913l0,0c8.934,8.934,21.279,14.459,34.913,14.459c27.269,0,49.372-22.103,49.372-49.372 v-18.243H281.324z"></path>
      <path style="fill:#D7ECED;" d="M218.808,218.429h-18.243v18.243l0,0l0,0c9.641,9.641,22.277,14.459,34.913,14.459v-49.372 L218.808,218.429z"></path>
      <path style="fill:#D7ECED;" d="M284.846,201.759v-18.243h-3.523c-2.499-6.267-6.257-11.884-10.936-16.584v34.826h-34.913 l34.913,34.913C280.028,227.031,284.846,214.395,284.846,201.759L284.846,201.759z"></path>
      <path style="fill:#ff0000;" d="M270.387,218.429h-18.243l-16.671-16.671v49.372c13.635,0,25.979-5.524,34.913-14.459l0,0l0,0 V218.429z"></path>
      <circle style="fill:#2D5872;" cx="235.474" cy="183.516" r="49.372"></circle>
      <path style="fill:#FFFFFF;" d="M235.474,134.144v49.372l34.913-34.913C260.746,138.967,248.11,134.144,235.474,134.144z"></path>
      <path style="fill:#FC611F;" d="M200.566,148.603l34.913,34.913v-49.372C221.839,134.144,209.5,139.668,200.566,148.603z"></path>
      <path style="fill:#FFFFFF;" d="M186.102,183.516h49.372l-34.913-34.913C190.925,158.244,186.102,170.88,186.102,183.516z"></path>
      <path style="fill:#FC611F;" d="M200.566,218.429l34.913-34.913h-49.372C186.102,197.151,191.626,209.495,200.566,218.429z"></path>
      <path style="fill:#FFFFFF;" d="M235.474,232.888v-49.372l-34.913,34.913C210.202,228.07,222.838,232.888,235.474,232.888z"></path>
      <path style="fill:#FC611F;" d="M270.387,218.429l-34.913-34.913v49.372C249.108,232.888,261.453,227.364,270.387,218.429z"></path>
      <path style="fill:#FFFFFF;" d="M284.846,183.516h-49.372l34.913,34.913C280.028,208.788,284.846,196.152,284.846,183.516z"></path>
      <path style="fill:#FC611F;" d="M270.387,148.603l-34.913,34.913h49.372C284.846,169.882,279.322,157.537,270.387,148.603z"></path>
      <circle style="fill:#FC611F;" cx="235.474" cy="183.516" r="34.913"></circle>
      <circle style="fill:#FFFFFF;" cx="235.474" cy="183.516" r="24.689"></circle>
      <path style="fill:#ff0000;" d="M281.324,165.274c-7.26-18.227-25.032-31.13-45.85-31.13s-38.589,12.902-45.85,31.13h-3.523v18.243 l0,0c0,13.635,5.524,25.979,14.459,34.913l0,0c8.934,8.934,21.279,14.459,34.913,14.459c27.269,0,49.372-22.103,49.372-49.372 v-18.243H281.324z"></path>
      <path style="fill:#D7ECED;" d="M218.808,200.187h-18.243v18.243l0,0l0,0c9.641,9.641,22.277,14.459,34.913,14.459v-49.372 L218.808,200.187z"></path>
      <path style="fill:#D7ECED;" d="M284.846,183.516v-18.243h-3.523c-2.499-6.267-6.257-11.884-10.936-16.584v34.826h-34.913 l34.913,34.913C280.028,208.788,284.846,196.152,284.846,183.516L284.846,183.516z"></path>
      <path style="fill:#ff0000;" d="M270.387,200.187h-18.243l-16.671-16.671v49.372c13.635,0,25.979-5.524,34.913-14.459l0,0l0,0 V200.187z"></path>
      <circle style="fill:#2D5872;" cx="235.474" cy="165.274" r="49.372"></circle>
      <path style="fill:#FFFFFF;" d="M235.474,115.901v49.372l34.913-34.913C260.746,120.719,248.11,115.901,235.474,115.901z"></path>
      <path style="fill:#FC611F;" d="M200.566,130.36l34.913,34.913v-49.372C221.839,115.901,209.5,121.426,200.566,130.36z"></path>
      <path style="fill:#FFFFFF;" d="M186.102,165.274h49.372l-34.913-34.913C190.925,140.001,186.102,152.637,186.102,165.274z"></path>
      <path style="fill:#FC611F;" d="M200.566,200.187l34.913-34.913h-49.372C186.102,178.908,191.626,191.252,200.566,200.187z"></path>
      <path style="fill:#FFFFFF;" d="M235.474,214.646v-49.372l-34.913,34.913C210.202,209.828,222.838,214.646,235.474,214.646z"></path>
      <path style="fill:#FC611F;" d="M270.387,200.187l-34.913-34.913v49.372C249.108,214.646,261.453,209.121,270.387,200.187z"></path>
      <path style="fill:#FFFFFF;" d="M284.846,165.274h-49.372l34.913,34.913C280.028,190.546,284.846,177.91,284.846,165.274z"></path>
      <path style="fill:#FC611F;" d="M270.387,130.36l-34.913,34.913h49.372C284.846,151.639,279.322,139.295,270.387,130.36z"></path>
      <circle style="fill:#FC611F;" cx="235.474" cy="165.274" r="34.913"></circle>
      <circle style="fill:#FFFFFF;" cx="235.474" cy="165.274" r="24.689"></circle>
      <path style="fill:#ff0000;" d="M281.324,147.031c-7.26-18.227-25.032-31.13-45.85-31.13s-38.589,12.902-45.85,31.13h-3.523v18.243 l0,0c0,13.635,5.524,25.979,14.459,34.913l0,0c8.934,8.934,21.279,14.459,34.913,14.459c27.269,0,49.372-22.103,49.372-49.372 v-18.243H281.324z"></path>
      <path style="fill:#D7ECED;" d="M218.808,181.939h-18.243v18.243l0,0l0,0c9.641,9.641,22.277,14.459,34.913,14.459v-49.367 L218.808,181.939z"></path>
      <path style="fill:#D7ECED;" d="M284.846,165.274v-18.243h-3.523c-2.499-6.267-6.257-11.884-10.936-16.584v34.826h-34.913 l34.913,34.913C280.028,190.546,284.846,177.91,284.846,165.274L284.846,165.274z"></path>
      <path style="fill:#ff0000;" d="M270.387,181.939h-18.243l-16.671-16.671v49.372c13.635,0,25.979-5.524,34.913-14.459l0,0l0,0 V181.939z"></path>
      <circle style="fill:#2D5872;" cx="235.474" cy="147.031" r="49.372"></circle>
      <path style="fill:#FFFFFF;" d="M235.474,97.659v49.372l34.913-34.913C260.746,102.477,248.11,97.659,235.474,97.659z"></path>
      <path style="fill:#FC611F;" d="M200.566,112.118l34.913,34.913V97.659C221.839,97.659,209.5,103.183,200.566,112.118z"></path>
      <path style="fill:#FFFFFF;" d="M186.102,147.031h49.372l-34.913-34.913C190.925,121.759,186.102,134.395,186.102,147.031z"></path>
      <path style="fill:#FC611F;" d="M200.566,181.939l34.913-34.913h-49.372C186.102,160.666,191.626,173.005,200.566,181.939z"></path>
      <path style="fill:#FFFFFF;" d="M235.474,196.403v-49.372l-34.913,34.913C210.202,191.58,222.838,196.403,235.474,196.403z"></path>
      <path style="fill:#FC611F;" d="M270.387,181.939l-34.913-34.913v49.372C249.108,196.403,261.453,190.874,270.387,181.939z"></path>
      <path style="fill:#FFFFFF;" d="M284.846,147.031h-49.372l34.913,34.913C280.028,172.298,284.846,159.667,284.846,147.031z"></path>
      <path style="fill:#FC611F;" d="M270.387,112.118l-34.913,34.913h49.372C284.846,133.396,279.322,121.052,270.387,112.118z"></path>
      <circle style="fill:#FC611F;" cx="235.474" cy="147.031" r="34.913"></circle>
      <circle style="fill:#FFFFFF;" cx="235.474" cy="147.031" r="24.689"></circle>
      <path style="fill:#ff0000;" d="M281.324,128.783c-7.26-18.227-25.032-31.13-45.85-31.13s-38.589,12.902-45.85,31.13h-3.523v18.243 l0,0c0,13.635,5.524,25.979,14.459,34.913l0,0c8.934,8.934,21.279,14.459,34.913,14.459c27.269,0,49.372-22.103,49.372-49.372 v-18.243C284.846,128.783,281.324,128.783,281.324,128.783z"></path>
      <path style="fill:#D7ECED;" d="M218.808,163.697h-18.243v18.243l0,0l0,0c9.641,9.641,22.277,14.459,34.913,14.459v-49.372 L218.808,163.697z"></path>
      <path style="fill:#D7ECED;" d="M284.846,147.031v-18.243h-3.523c-2.499-6.267-6.257-11.884-10.936-16.584v34.826h-34.913 l34.913,34.913C280.028,172.298,284.846,159.662,284.846,147.031L284.846,147.031z"></path>
      <path style="fill:#ff0000;" d="M270.387,163.697h-18.243l-16.671-16.671v49.372c13.635,0,25.979-5.524,34.913-14.459l0,0l0,0 V163.697z"></path>
      <circle style="fill:#2D5872;" cx="235.474" cy="128.768" r="49.372"></circle>
      <path style="fill:#FFFFFF;" d="M235.474,79.411v49.372l34.913-34.913C260.746,84.234,248.11,79.411,235.474,79.411z"></path>
      <path style="fill:#FC611F;" d="M200.566,93.875l34.913,34.913V79.416C221.839,79.411,209.5,84.941,200.566,93.875z"></path>
      <path style="fill:#FFFFFF;" d="M186.102,128.783h49.372L200.561,93.87C190.925,103.516,186.102,116.152,186.102,128.783z"></path>
      <path style="fill:#FC611F;" d="M200.566,163.697l34.913-34.913h-49.372C186.102,142.418,191.626,154.762,200.566,163.697z"></path>
      <path style="fill:#FFFFFF;" d="M235.474,178.161v-49.372l-34.913,34.913C210.202,173.338,222.838,178.161,235.474,178.161z"></path>
      <path style="fill:#FC611F;" d="M270.387,163.697l-34.913-34.913v49.372C249.108,178.161,261.453,172.631,270.387,163.697z"></path>
      <path style="fill:#FFFFFF;" d="M284.846,128.783h-49.372l34.913,34.913C280.028,154.056,284.846,141.42,284.846,128.783z"></path>
      <path style="fill:#FC611F;" d="M270.387,93.875l-34.913,34.913h49.372C284.846,115.154,279.322,102.81,270.387,93.875z"></path>
      <circle style="fill:#FC611F;" cx="235.474" cy="128.768" r="34.913"></circle>
      <circle style="fill:#FFFFFF;" cx="235.474" cy="128.768" r="24.689"></circle>
      <path style="fill:#0F303F;" d="M330.696,324.316c-7.26-18.227-25.032-31.13-45.85-31.13s-38.589,12.902-45.85,31.13h-3.523v18.243 l0,0c0,13.635,5.524,25.979,14.459,34.913l0,0c8.934,8.934,21.279,14.459,34.913,14.459c27.269,0,49.372-22.103,49.372-49.372 v-18.243L330.696,324.316L330.696,324.316z"></path>
      <path style="fill:#D7ECED;" d="M268.18,359.229h-18.243v18.243l0,0l0,0c9.641,9.641,22.277,14.459,34.913,14.459v-49.372 L268.18,359.229z"></path>
      <path style="fill:#D7ECED;" d="M334.218,342.559v-18.243h-3.523c-2.499-6.267-6.257-11.884-10.936-16.584v34.826h-34.913 l34.913,34.913C329.4,367.831,334.223,355.195,334.218,342.559L334.218,342.559z"></path>
      <path style="fill:#0F303F;" d="M319.759,359.229h-18.243l-16.671-16.671v49.372c13.635,0,25.979-5.524,34.913-14.459l0,0l0,0 V359.229z"></path>
      <circle style="fill:#2D5872;" cx="284.846" cy="324.301" r="49.372"></circle>
      <path style="fill:#FFFFFF;" d="M284.846,274.944v49.372l34.913-34.913C310.118,279.767,297.482,274.944,284.846,274.944z"></path>
      <path style="fill:#2D5872;" d="M249.938,289.408l34.913,34.913v-49.372C271.212,274.944,258.872,280.468,249.938,289.408z"></path>
      <path style="fill:#FFFFFF;" d="M235.474,324.316h49.372l-34.913-34.913C240.297,299.049,235.474,311.68,235.474,324.316z"></path>
      <path style="fill:#2D5872;" d="M249.938,359.229l34.913-34.913h-49.372C235.474,337.951,241.004,350.295,249.938,359.229z"></path>
      <path style="fill:#FFFFFF;" d="M284.846,373.688v-49.372l-34.913,34.913C259.579,368.87,272.21,373.688,284.846,373.688z"></path>
      <path style="fill:#2D5872;" d="M319.759,359.229l-34.913-34.913v49.372C298.481,373.688,310.825,368.164,319.759,359.229z"></path>
      <path style="fill:#FFFFFF;" d="M334.223,324.316h-49.372l34.913,34.913C329.4,349.588,334.223,336.952,334.223,324.316z"></path>
      <path style="fill:#2D5872;" d="M319.759,289.408l-34.913,34.913h49.372C334.218,310.682,328.694,298.342,319.759,289.408z"></path>
      <circle style="fill:#2D5872;" cx="284.846" cy="324.301" r="34.913"></circle>
      <circle style="fill:#FFFFFF;" cx="284.846" cy="324.301" r="24.689"></circle>
      <path style="fill:#0F303F;" d="M330.696,306.074c-7.26-18.227-25.032-31.13-45.85-31.13s-38.589,12.902-45.85,31.13h-3.523v18.243 l0,0c0,13.635,5.524,25.979,14.459,34.913l0,0c8.934,8.934,21.279,14.459,34.913,14.459c27.269,0,49.372-22.103,49.372-49.372 v-18.243H330.696z"></path>
      <path style="fill:#D7ECED;" d="M268.18,340.987h-18.243v18.243l0,0l0,0c9.641,9.641,22.277,14.459,34.913,14.459v-49.372 L268.18,340.987z"></path>
      <path style="fill:#D7ECED;" d="M334.218,324.316v-18.243h-3.523c-2.499-6.267-6.257-11.884-10.936-16.584v34.826h-34.913 l34.913,34.913C329.4,349.588,334.223,336.952,334.218,324.316L334.218,324.316z"></path>
      <path style="fill:#0F303F;" d="M319.759,340.987h-18.243l-16.671-16.671v49.372c13.635,0,25.979-5.525,34.913-14.459l0,0l0,0 V340.987z"></path>
      <circle style="fill:#2D5872;" cx="284.846" cy="306.074" r="49.372"></circle>
      <path style="fill:#FFFFFF;" d="M284.846,256.701v49.372l34.913-34.913C310.118,261.519,297.482,256.701,284.846,256.701z"></path>
      <path style="fill:#2D5872;" d="M249.938,271.16l34.913,34.913v-49.372C271.212,256.701,258.872,262.226,249.938,271.16z"></path>
      <path style="fill:#FFFFFF;" d="M235.474,306.074h49.372l-34.913-34.913C240.297,280.801,235.474,293.437,235.474,306.074z"></path>
      <path style="fill:#2D5872;" d="M249.938,340.987l34.913-34.913h-49.372C235.474,319.708,241.004,332.052,249.938,340.987z"></path>
      <path style="fill:#FFFFFF;" d="M284.846,355.446v-49.372l-34.913,34.913C259.579,350.628,272.21,355.446,284.846,355.446z"></path>
      <path style="fill:#2D5872;" d="M319.759,340.987l-34.913-34.913v49.372C298.481,355.446,310.825,349.921,319.759,340.987z"></path>
      <path style="fill:#FFFFFF;" d="M334.223,306.074h-49.372l34.913,34.913C329.4,331.346,334.223,318.71,334.223,306.074z"></path>
      <path style="fill:#2D5872;" d="M319.759,271.16l-34.913,34.913h49.372C334.218,292.439,328.694,280.095,319.759,271.16z"></path>
      <circle style="fill:#2D5872;" cx="284.846" cy="306.074" r="34.913"></circle>
      <circle style="fill:#FFFFFF;" cx="284.846" cy="306.074" r="24.689"></circle>
      <path style="fill:#0F303F;" d="M330.696,287.831c-7.26-18.227-25.032-31.13-45.85-31.13s-38.589,12.902-45.85,31.13h-3.523v18.243 l0,0c0,13.635,5.524,25.979,14.459,34.913l0,0c8.934,8.934,21.279,14.459,34.913,14.459c27.269,0,49.372-22.103,49.372-49.372 v-18.243H330.696z"></path>
      <path style="fill:#D7ECED;" d="M268.18,322.744h-18.243v18.243l0,0l0,0c9.641,9.641,22.277,14.459,34.913,14.459v-49.372 L268.18,322.744z"></path>
      <path style="fill:#D7ECED;" d="M334.218,306.074v-18.243h-3.523c-2.499-6.267-6.257-11.884-10.936-16.584v34.826h-34.913 l34.913,34.913C329.4,331.346,334.223,318.71,334.218,306.074L334.218,306.074z"></path>
      <path style="fill:#0F303F;" d="M319.759,322.744h-18.243l-16.671-16.671v49.372c13.635,0,25.979-5.525,34.913-14.459l0,0l0,0 V322.744z"></path>
      <circle style="fill:#2D5872;" cx="284.846" cy="287.846" r="49.372"></circle>
      <path style="fill:#FFFFFF;" d="M284.846,238.459v49.372l34.913-34.913C310.118,243.277,297.482,238.459,284.846,238.459z"></path>
      <path style="fill:#2D5872;" d="M249.938,252.918l34.913,34.913v-49.372C271.212,238.459,258.872,243.983,249.938,252.918z"></path>
      <path style="fill:#FFFFFF;" d="M235.474,287.831h49.372l-34.913-34.913C240.297,262.559,235.474,275.195,235.474,287.831z"></path>
      <path style="fill:#2D5872;" d="M249.938,322.744l34.913-34.913h-49.372C235.474,301.466,241.004,313.81,249.938,322.744z"></path>
      <path style="fill:#FFFFFF;" d="M284.846,337.203v-49.372l-34.913,34.913C259.579,332.385,272.21,337.203,284.846,337.203z"></path>
      <path style="fill:#2D5872;" d="M319.759,322.744l-34.913-34.913v49.372C298.481,337.203,310.825,331.679,319.759,322.744z"></path>
      <path style="fill:#FFFFFF;" d="M334.223,287.831h-49.372l34.913,34.913C329.4,313.103,334.223,300.467,334.223,287.831z"></path>
      <path style="fill:#2D5872;" d="M319.759,252.918l-34.913,34.913h49.372C334.218,274.196,328.694,261.852,319.759,252.918z"></path>
      <circle style="fill:#2D5872;" cx="284.846" cy="287.846" r="34.913"></circle>
      <circle style="fill:#FFFFFF;" cx="284.846" cy="287.846" r="24.689"></circle>
      <path style="fill:#0F303F;" d="M330.696,269.588c-7.26-18.227-25.032-31.13-45.85-31.13s-38.589,12.902-45.85,31.13h-3.523v18.243 l0,0c0,13.635,5.524,25.979,14.459,34.913l0,0c8.934,8.934,21.279,14.459,34.913,14.459c27.269,0,49.372-22.103,49.372-49.372 v-18.243L330.696,269.588L330.696,269.588z"></path>
      <path style="fill:#D7ECED;" d="M268.18,304.502h-18.243v18.243l0,0l0,0c9.641,9.641,22.277,14.459,34.913,14.459v-49.372 L268.18,304.502z"></path>
      <path style="fill:#D7ECED;" d="M334.218,287.831v-18.243h-3.523c-2.499-6.267-6.257-11.884-10.936-16.584v34.826h-34.913 l34.913,34.913C329.4,313.103,334.223,300.467,334.218,287.831L334.218,287.831z"></path>
      <path style="fill:#0F303F;" d="M319.759,304.497h-18.243l-16.671-16.671v49.372c13.635,0,25.979-5.525,34.913-14.459l0,0l0,0 V304.497z"></path>
      <circle style="fill:#2D5872;" cx="284.846" cy="269.588" r="49.372"></circle>
      <path style="fill:#FFFFFF;" d="M284.846,220.216v49.372l34.913-34.913C310.118,225.034,297.482,220.216,284.846,220.216z"></path>
      <path style="fill:#2D5872;" d="M249.938,234.675l34.913,34.913v-49.372C271.212,220.216,258.872,225.741,249.938,234.675z"></path>
      <path style="fill:#FFFFFF;" d="M235.474,269.588h49.372l-34.913-34.913C240.297,244.316,235.474,256.952,235.474,269.588z"></path>
      <path style="fill:#2D5872;" d="M249.938,304.502l34.913-34.913h-49.372C235.474,283.223,241.004,295.562,249.938,304.502z"></path>
      <path style="fill:#FFFFFF;" d="M284.846,318.961v-49.372l-34.913,34.913C259.579,314.138,272.21,318.961,284.846,318.961z"></path>
      <path style="fill:#2D5872;" d="M319.759,304.502l-34.913-34.913v49.372C298.481,318.961,310.825,313.436,319.759,304.502z"></path>
      <path style="fill:#FFFFFF;" d="M334.223,269.588h-49.372l34.913,34.913C329.4,294.861,334.223,282.225,334.223,269.588z"></path>
      <path style="fill:#2D5872;" d="M319.759,234.675l-34.913,34.913h49.372C334.218,255.954,328.694,243.61,319.759,234.675z"></path>
      <circle style="fill:#2D5872;" cx="284.846" cy="269.588" r="34.913"></circle>
      <circle style="fill:#FFFFFF;" cx="284.846" cy="269.588" r="24.689"></circle>
      <path style="fill:#0F303F;" d="M214.497,353.874c-7.26-18.227-25.032-31.13-45.85-31.13s-38.589,12.902-45.85,31.13h-3.523v18.243 l0,0c0,13.635,5.524,25.979,14.459,34.913l0,0c8.934,8.934,21.279,14.459,34.913,14.459c27.269,0,49.372-22.103,49.372-49.372 v-18.243H214.497z"></path>
      <path style="fill:#D7ECED;" d="M151.977,388.782h-18.243v18.243l0,0l0,0c9.641,9.641,22.277,14.459,34.913,14.459v-49.372 L151.977,388.782z"></path>
      <path style="fill:#D7ECED;" d="M218.02,372.116v-18.243h-3.523c-2.499-6.267-6.257-11.884-10.936-16.584v34.826h-34.913 l34.913,34.913C213.197,397.389,218.02,384.753,218.02,372.116L218.02,372.116z"></path>
      <path style="fill:#0F303F;" d="M203.556,388.782h-18.243l-16.671-16.671v49.372c13.635,0,25.979-5.525,34.913-14.459l0,0l0,0 V388.782z"></path>
      <circle style="fill:#2D5872;" cx="168.648" cy="353.894" r="49.372"></circle>
      <path style="fill:#FFFFFF;" d="M168.648,304.502v49.372l34.913-34.913C193.915,309.32,181.284,304.502,168.648,304.502z"></path>
      <path style="fill:#2D5872;" d="M133.734,318.961l34.913,34.913v-49.372C155.013,304.502,142.669,310.026,133.734,318.961z"></path>
      <path style="fill:#FFFFFF;" d="M119.276,353.874h49.372l-34.913-34.913C124.093,328.602,119.276,341.238,119.276,353.874z"></path>
      <path style="fill:#2D5872;" d="M133.734,388.782l34.913-34.913h-49.372C119.276,367.508,124.8,379.848,133.734,388.782z"></path>
      <path style="fill:#FFFFFF;" d="M168.648,403.246v-49.372l-34.913,34.913C143.375,398.423,156.012,403.246,168.648,403.246z"></path>
      <path style="fill:#2D5872;" d="M203.556,388.782l-34.913-34.913v49.372C182.282,403.246,194.621,397.722,203.556,388.782z"></path>
      <path style="fill:#FFFFFF;" d="M218.02,353.874h-49.372l34.913,34.913C213.197,379.141,218.02,366.51,218.02,353.874z"></path>
      <path style="fill:#2D5872;" d="M203.556,318.961l-34.913,34.913h49.372C218.02,340.239,212.49,327.895,203.556,318.961z"></path>
      <circle style="fill:#2D5872;" cx="168.648" cy="353.894" r="34.913"></circle>
      <circle style="fill:#FFFFFF;" cx="168.648" cy="353.894" r="24.689"></circle>
    </g>
</svg>